<svg xmlns="http://www.w3.org/2000/svg" xmlns:xlink="http://www.w3.org/1999/xlink" xml:space="preserve" version="1.0" style="shape-rendering:geometricPrecision;text-rendering:geometricPrecision;image-rendering:optimizeQuality;" viewBox="0 0 10000 12500" x="0px" y="0px" fill-rule="evenodd" clip-rule="evenodd"><defs><style type="text/css">
   
    .fil0 {fill:black;fill-rule:nonzero}
   
  </style></defs><g><path class="fil0" d="M1532 5418c-66,0 -66,-100 0,-100 1320,0 2389,-1069 2389,-2389 0,-66 100,-66 100,0 0,1319 1070,2389 2390,2389 65,0 65,100 0,100 -1320,0 -2390,1070 -2390,2390 0,66 -100,66 -100,0 0,-1320 -1069,-2390 -2389,-2390z"/><path class="fil0" d="M7226 3295c66,0 66,100 0,100 -609,0 -1103,494 -1103,1104 0,65 -100,65 -100,0 0,-610 -494,-1104 -1103,-1104 -66,0 -66,-100 0,-100 609,0 1103,-494 1103,-1103 0,-66 100,-66 100,0 0,609 494,1103 1103,1103z"/><path class="fil0" d="M8468 4832c66,0 66,99 0,99 -403,0 -730,327 -730,731 0,65 -100,65 -100,0 0,-404 -327,-731 -730,-731 -66,0 -66,-99 0,-99 403,0 730,-327 730,-731 0,-65 100,-65 100,0 0,404 327,731 730,731z"/></g><text x="0" y="10015" fill="#000000" font-size="5px" font-weight="bold" font-family="'Helvetica Neue', Helvetica, Arial-Unicode, Arial, Sans-serif">Created by Ragal Kartidev</text><text x="0" y="10020" fill="#000000" font-size="5px" font-weight="bold" font-family="'Helvetica Neue', Helvetica, Arial-Unicode, Arial, Sans-serif">from the Noun Project</text></svg>